<svg width="18" height="20" viewBox="0 0 18 20" fill="none" xmlns="http://www.w3.org/2000/svg">
<path fill-rule="evenodd" clip-rule="evenodd" d="M8.99485 12.4999C12.2165 12.4999 14.8282 9.88817 14.8282 6.66648C14.8282 3.44479 12.2165 0.833097 8.99485 0.833097C5.77316 0.833097 3.16147 3.44479 3.16147 6.66648C3.16147 9.88817 5.77316 12.4999 8.99485 12.4999ZM8.99485 13.3332C12.6768 13.3332 15.6616 10.3484 15.6616 6.66648C15.6616 2.98455 12.6768 -0.000244141 8.99485 -0.000244141C5.31292 -0.000244141 2.32812 2.98455 2.32812 6.66648C2.32812 10.3484 5.31292 13.3332 8.99485 13.3332Z" fill="white"/>
<path fill-rule="evenodd" clip-rule="evenodd" d="M6.25402 12.4299C3.18341 13.8083 1.08334 16.4657 1.08334 20.0001H0.25C0.25 16.0814 2.59747 13.1578 5.91275 11.6697L6.25402 12.4299ZM12.0874 11.6697C15.4027 13.1578 17.7502 16.0814 17.7502 20.0001H16.9168C16.9168 16.4657 14.8167 13.8083 11.7461 12.4299L12.0874 11.6697Z" fill="white"/>
</svg>
