<svg width="24" height="24" viewBox="0 0 24 24" fill="none" xmlns="http://www.w3.org/2000/svg">
<path fill-rule="evenodd" clip-rule="evenodd" d="M12.0037 2.83526C9.09672 2.83526 6.58722 5.84274 6.58722 9.76416H5.75391C5.75391 5.57191 8.4676 2.00195 12.0037 2.00195C15.5399 2.00195 18.2535 5.57191 18.2535 9.76416H17.4202C17.4202 5.84274 14.9107 2.83526 12.0037 2.83526Z" fill="white"/>
<path fill-rule="evenodd" clip-rule="evenodd" d="M19.1662 10.0539H4.83508C4.31452 10.0539 3.9214 10.5259 4.0155 11.0378L5.75128 20.482C5.82397 20.8775 6.16874 21.1647 6.57086 21.1647H17.4304C17.8325 21.1647 18.1773 20.8775 18.25 20.482L19.9858 11.0378C20.0799 10.5259 19.6867 10.0539 19.1662 10.0539ZM4.83508 9.22058C3.79397 9.22058 3.00772 10.1645 3.19591 11.1885L4.9317 20.6326C5.07708 21.4236 5.76661 21.998 6.57086 21.998H17.4304C18.2346 21.998 18.9242 21.4236 19.0696 20.6326L20.8053 11.1885C20.9935 10.1645 20.2073 9.22058 19.1662 9.22058H4.83508Z" fill="white"/>
</svg>
