<svg width="20" height="20" viewBox="0 0 20 20" fill="none" xmlns="http://www.w3.org/2000/svg">
<path fill-rule="evenodd" clip-rule="evenodd" d="M0.833388 8.75004C0.833388 4.37776 4.37803 0.833337 8.75057 0.833337C13.1231 0.833337 16.6678 4.37776 16.6678 8.75004C16.6678 13.1223 13.1231 16.6667 8.75057 16.6667C4.37803 16.6667 0.833388 13.1223 0.833388 8.75004ZM8.75057 0C3.91776 0 0 3.91752 0 8.75004C0 13.5825 3.91776 17.5001 8.75057 17.5001C11.0162 17.5001 13.0807 16.6391 14.6347 15.2265L19.2864 19.878C19.4492 20.0407 19.713 20.0407 19.8757 19.878C20.0385 19.7152 20.0385 19.4514 19.8757 19.2887L15.2242 14.6375C16.6388 13.0831 17.5011 11.0173 17.5011 8.75004C17.5011 3.91752 13.5834 0 8.75057 0Z" fill="white"/>
</svg>
